<svg xmlns="http://www.w3.org/2000/svg" viewBox="0 0 64 64">
  <defs>
    <linearGradient id="left" x1="6" y1="8" x2="29" y2="56" gradientUnits="userSpaceOnUse">
      <stop stop-color="#7debff"/>
      <stop offset=".38" stop-color="#38bdf8"/>
      <stop offset="1" stop-color="#0ea5e9"/>
    </linearGradient>
    <linearGradient id="right" x1="37" y1="8" x2="58" y2="56" gradientUnits="userSpaceOnUse">
      <stop stop-color="#7debff"/>
      <stop offset=".5" stop-color="#0ea5e9"/>
      <stop offset="1" stop-color="#2563eb"/>
    </linearGradient>
    <linearGradient id="bridge-left" x1="18" y1="24" x2="35" y2="40" gradientUnits="userSpaceOnUse">
      <stop stop-color="#7debff"/>
      <stop offset="1" stop-color="#38bdf8"/>
    </linearGradient>
    <linearGradient id="bridge-right" x1="29" y1="24" x2="47" y2="40" gradientUnits="userSpaceOnUse">
      <stop stop-color="#38bdf8"/>
      <stop offset="1" stop-color="#0ea5e9"/>
    </linearGradient>
    <filter id="shadow" x="-35%" y="-25%" width="170%" height="165%">
      <feDropShadow dx="0" dy="3" stdDeviation="2.5" flood-color="#073b8e" flood-opacity=".28"/>
    </filter>
  </defs>
  <g filter="url(#shadow)">
    <rect x="6" y="8" width="21" height="48" rx="10.5" fill="url(#left)"/>
    <rect x="37" y="8" width="21" height="48" rx="10.5" fill="url(#right)"/>
    <rect x="17" y="24" width="19" height="16" rx="8" fill="url(#bridge-left)"/>
    <rect x="28" y="24" width="19" height="16" rx="8" fill="url(#bridge-right)"/>
  </g>
  <rect x="9" y="11" width="8" height="31" rx="4" fill="#fff" fill-opacity=".1"/>
  <rect x="40" y="11" width="7" height="27" rx="3.5" fill="#fff" fill-opacity=".1"/>
  <path d="M12 17c0-3.6 2.1-6 5.1-6" fill="none" stroke="#fff" stroke-opacity=".7" stroke-width="2.4" stroke-linecap="round"/>
  <path d="M41.5 19v-4c0-2.8 1.8-4.8 4.2-4.8" fill="none" stroke="#fff" stroke-opacity=".46" stroke-width="2.2" stroke-linecap="round"/>
  <ellipse cx="51" cy="15" rx="4" ry="5.8" fill="#fff" fill-opacity=".3" transform="rotate(-24 51 15)"/>
  <ellipse cx="23.5" cy="29" rx="4.5" ry="2.5" fill="#fff" fill-opacity=".24" transform="rotate(-12 23.5 29)"/>
</svg>
